HIERARCHY
ROOT root
{
	OFFSET 0.000000 0.000000 0.000000
	CHANNELS 6 Xposition Yposition Zposition Zrotation Yrotation Xrotation
	JOINT lhip
	{
		OFFSET 0.058581 -0.082280 -0.017664
		CHANNELS 3 Zrotation Yrotation Xrotation
		JOINT lknee
		{
			OFFSET 0.043451 -0.386469 0.008037
			CHANNELS 3 Zrotation Yrotation Xrotation
			JOINT lankle
			{
				OFFSET -0.014790 -0.426874 -0.037428
				CHANNELS 3 Zrotation Yrotation Xrotation
				JOINT ltoe
				{
					OFFSET 0.041054 -0.060286 0.122042
					CHANNELS 3 Zrotation Yrotation Xrotation
					End Site
					{
						OFFSET 0.000000 0.000000 0.000000
					}
				}
			}
		}
	}
	JOINT rhip
	{
		OFFSET -0.060310 -0.090513 -0.013543
		CHANNELS 3 Zrotation Yrotation Xrotation
		JOINT rknee
		{
			OFFSET -0.043257 -0.383688 -0.004843
			CHANNELS 3 Zrotation Yrotation Xrotation
			JOINT rankle
			{
				OFFSET 0.019056 -0.420046 -0.034562
				CHANNELS 3 Zrotation Yrotation Xrotation
				JOINT rtoe
				{
					OFFSET -0.034840 -0.062106 0.130323
					CHANNELS 3 Zrotation Yrotation Xrotation
					End Site
					{
						OFFSET 0.000000 0.000000 0.000000
					}
				}
			}
		}
	}
	JOINT lowerback
	{
		OFFSET 0.004439 0.124404 -0.038385
		CHANNELS 3 Zrotation Yrotation Xrotation
		JOINT upperback
		{
			OFFSET 0.004488 0.137956 0.026820
			CHANNELS 3 Zrotation Yrotation Xrotation
			JOINT chest
			{
				OFFSET -0.002265 0.056032 0.002855
				CHANNELS 3 Zrotation Yrotation Xrotation
				JOINT lowerneck
				{
					OFFSET -0.013390 0.211636 -0.033468
					CHANNELS 3 Zrotation Yrotation Xrotation
					JOINT upperneck
					{
						OFFSET 0.010113 0.088937 0.050410
						CHANNELS 3 Zrotation Yrotation Xrotation
						End Site
						{
							OFFSET 0.000000 0.000000 0.000000
						}
					}
				}
				JOINT lclavicle
				{
					OFFSET 0.071702 0.114000 -0.018898
					CHANNELS 3 Zrotation Yrotation Xrotation
					JOINT lshoulder
					{
						OFFSET 0.122921 0.045205 -0.019046
						CHANNELS 3 Zrotation Yrotation Xrotation
						JOINT lelbow
						{
							OFFSET 0.255332 -0.015649 -0.022946
							CHANNELS 3 Zrotation Yrotation Xrotation
							JOINT lwrist
							{
								OFFSET 0.265709 0.012698 -0.007375
								CHANNELS 3 Zrotation Yrotation Xrotation
								End Site
								{
									OFFSET 0.000000 0.000000 0.000000
								}
							}
						}
					}
				}
				JOINT rclavicle
				{
					OFFSET -0.082954 0.112472 -0.023707
					CHANNELS 3 Zrotation Yrotation Xrotation
					JOINT rshoulder
					{
						OFFSET -0.113228 0.046853 -0.008472
						CHANNELS 3 Zrotation Yrotation Xrotation
						JOINT relbow
						{
							OFFSET -0.260127 -0.014369 -0.031269
							CHANNELS 3 Zrotation Yrotation Xrotation
							JOINT rwrist
							{
								OFFSET -0.269108 0.006794 -0.006027
								CHANNELS 3 Zrotation Yrotation Xrotation
								End Site
								{
									OFFSET 0.000000 0.000000 0.000000
								}
							}
						}
					}
				}
			}
		}
	}
}
MOTION
Frames: 17
Frame Time: 0.033333
1.041292 0.718551 1.028588 -86.048267 2.676486 99.781495 4.470428 -3.445931 -15.849987 -9.588142 -3.803645 29.862167 0.406489 9.273142 2.951964 0.000000 -0.000000 0.000000 -0.563419 -8.152875 -14.105977 4.989696 -3.762756 28.188265 0.539138 -11.468370 14.977182 0.000000 -0.000000 0.000000 0.881551 4.329140 19.633178 -2.145214 -3.331154 -11.644916 2.573250 4.097589 2.429011 -2.963260 1.989480 -8.241403 6.882471 -3.163441 -15.394018 22.054120 -24.817623 -26.229667 21.200540 -41.926612 -36.852437 30.029415 -37.967514 -38.805936 2.305738 -21.138461 -6.789944 -23.493571 31.693507 -19.010482 -21.543488 30.117331 -44.997084 -32.631494 46.519267 -30.744901 -3.611394 11.216956 16.597125 
0.987345 0.709625 1.105350 -83.062863 2.119373 96.705778 1.977449 -1.447800 -0.230097 -0.183347 -4.316361 5.404936 -11.284421 7.924308 33.807757 0.000000 -0.000000 0.000000 -1.132501 -12.891351 -0.203852 -0.925710 -7.878977 8.047689 14.154641 -11.297595 42.206169 0.000000 -0.000000 0.000000 2.540308 4.839136 17.640864 -3.794505 -3.190471 -11.771334 2.326265 2.534018 2.462610 -5.691865 -4.259317 -9.429630 8.097059 4.901883 -9.155716 21.398358 -17.773049 -31.526774 13.549967 -49.167002 -29.683278 23.977735 -40.188580 -32.775898 0.041961 -19.874056 -7.384518 -25.001406 20.631055 -25.945188 -12.327813 42.184146 -28.963420 -37.442350 42.272887 -32.570177 -4.177739 13.415725 15.936318 
0.947759 0.700642 1.167984 -79.855366 1.155994 99.897072 0.141398 1.304075 0.833669 3.371630 3.332537 -6.229746 -8.230246 12.706652 37.645718 0.000000 -0.000000 0.000000 -0.233154 -13.088595 -1.653979 -2.085348 -9.136576 2.197228 13.121525 -13.228260 43.115654 0.000000 -0.000000 0.000000 0.650186 5.436416 5.949548 -3.304749 -3.752835 -6.306262 2.397894 2.960581 -2.396086 -8.216719 -5.249929 7.540548 7.526709 8.228933 -16.025145 21.101617 -23.794819 -25.080351 17.063806 -43.625667 -28.413673 20.413304 -39.855650 -32.417441 2.226385 -22.174930 -1.305329 -24.944718 23.723795 -21.015486 -14.058124 35.586854 -27.350636 -33.830468 44.436235 -29.761246 -5.073871 15.123798 17.334596 
0.923500 0.692162 1.220540 -76.086774 0.198755 102.612748 -0.757896 -0.915085 -4.361423 2.343636 7.711884 -2.710447 -7.612287 13.187219 42.892357 0.000000 -0.000000 0.000000 0.090440 -9.958042 -6.066774 -1.202402 -7.735291 0.810784 13.514314 -13.564396 45.586343 0.000000 -0.000000 0.000000 0.466136 3.991004 2.983564 -2.902512 -3.951576 -6.401558 1.197128 2.934482 -3.918703 -8.018500 -4.032841 5.253167 6.400982 9.751251 -14.078713 20.262925 -23.398259 -22.639808 19.895069 -43.284655 -28.977282 23.469273 -37.602350 -39.352144 5.103416 -24.035695 -3.532616 -23.105031 22.757175 -19.057813 -18.154666 34.424821 -28.102834 -36.942509 41.463280 -34.231536 -6.148501 15.510329 15.673163 
0.900291 0.685538 1.263714 -71.092249 -0.281653 100.178936 -1.760397 0.372716 -3.042267 2.178467 6.700526 -4.569142 -8.949064 12.678493 43.710973 0.000000 -0.000000 0.000000 0.184000 -10.253873 -5.645044 -2.227447 -7.176504 -0.221070 13.289279 -13.488747 45.323362 0.000000 -0.000000 0.000000 1.556097 2.818892 7.639970 -3.334545 -4.995911 -8.172808 1.159077 1.643108 -3.667345 -7.851005 -2.879080 1.169062 6.773635 11.411081 -11.190016 19.766616 -24.444865 -23.355737 19.859058 -40.367865 -30.328448 23.587650 -37.933299 -41.131227 3.371765 -23.396341 -3.717140 -23.649071 21.651739 -20.567822 -15.164599 32.434516 -28.527043 -43.245576 41.097521 -42.145099 -6.756584 15.560947 14.880552 
0.877843 0.683052 1.296020 -66.091349 0.221894 97.317695 -1.838185 3.576211 -2.496468 2.987061 5.705856 -4.901552 -8.948592 13.114171 43.163096 0.000000 -0.000000 0.000000 1.150008 -11.373185 -4.952553 -2.802640 -6.066446 -1.311765 13.557529 -12.965200 45.099510 0.000000 -0.000000 0.000000 2.257853 2.352733 12.290652 -2.647425 -5.920094 -11.171908 2.328735 0.629609 -1.374918 -8.452858 -1.738067 -0.718636 6.607961 12.931034 -9.528635 17.802921 -26.264557 -23.717785 18.849300 -37.488541 -30.249477 23.667195 -40.459439 -41.532640 2.791556 -23.109899 -3.364031 -22.371576 21.190857 -21.153605 -14.677903 27.983447 -27.787923 -48.168970 43.443455 -47.221032 -6.830006 15.558831 15.032024 
0.854251 0.679083 1.318680 -62.245598 0.357140 95.687810 -2.054134 3.516061 -2.366564 2.156334 5.091747 -5.026435 -9.913164 12.049756 43.352303 0.000000 -0.000000 0.000000 0.880274 -11.392282 -5.653653 -2.361069 -4.608061 -1.691057 14.262143 -11.596531 45.112787 0.000000 -0.000000 0.000000 2.211247 2.359302 13.344388 -1.731304 -6.320722 -11.385569 2.850535 -0.000307 0.081887 -8.502554 0.319668 -0.781258 5.531599 13.790551 -9.647303 16.827112 -25.398244 -23.107393 16.494705 -37.263520 -29.066451 24.971199 -42.143266 -41.719582 2.809368 -23.188206 -3.600446 -20.589974 18.724758 -20.635876 -14.423773 26.361063 -27.316576 -52.220085 45.084384 -50.498498 -6.722761 15.388810 14.492618 
0.830487 0.674912 1.331768 -58.466929 0.495255 95.524491 -2.702331 2.227829 -3.635172 2.002900 6.556061 -5.524804 -9.482867 11.856741 42.966379 0.000000 -0.000000 0.000000 0.857989 -9.269699 -8.174702 -2.470496 -3.190065 -1.371059 14.169823 -11.024887 44.722784 0.000000 -0.000000 0.000000 1.876210 2.138720 12.278880 -0.806185 -6.414660 -10.443298 2.899428 -0.326391 0.139219 -8.139192 2.353399 0.926492 4.818410 15.081887 -9.971873 17.106012 -23.980352 -21.967571 12.744483 -38.641144 -27.464371 26.675363 -42.887254 -41.584430 3.665918 -23.028357 -4.625724 -19.987131 15.400848 -19.094063 -10.988262 25.943472 -25.347938 -59.547348 45.376537 -55.263986 -6.056396 14.389201 12.832200 
0.806586 0.672223 1.333818 -54.804537 1.130612 95.126996 -2.850008 1.703632 -5.139573 1.943885 8.194569 -5.173619 -9.680122 12.092834 42.151779 0.000000 -0.000000 0.000000 1.146148 -5.894242 -10.510944 -2.551056 -0.408657 -0.423630 15.012313 -9.870903 43.370827 0.000000 -0.000000 0.000000 1.569847 1.171002 12.109005 0.253130 -6.740541 -9.594328 3.052692 -0.783091 -0.045450 -7.791120 3.647468 0.931664 4.315843 15.926330 -10.468597 16.500177 -23.408866 -20.233655 11.399245 -38.853622 -26.353354 28.457747 -43.686439 -43.047385 3.673406 -23.218128 -5.358646 -18.821599 13.764198 -17.059856 -8.791388 24.464958 -22.845948 -67.398506 45.442720 -61.414365 -5.983533 14.122300 10.710067 
0.781512 0.670708 1.324719 -50.620728 2.263835 94.146978 -2.528999 1.746981 -5.777798 1.520670 9.246941 -5.426120 -10.139695 12.189297 41.109500 0.000000 -0.000000 0.000000 2.006646 -2.058013 -11.893841 -2.991662 3.493349 0.653815 15.268354 -9.145688 41.455365 0.000000 -0.000000 0.000000 1.460841 0.010537 13.262258 1.151135 -7.167883 -9.058281 3.351755 -0.796041 -0.487757 -7.772979 4.005315 -0.052927 5.017313 16.740261 -10.461655 15.181740 -25.305637 -19.467046 11.677339 -38.628338 -25.599387 28.583665 -44.749130 -43.606138 3.044366 -23.399472 -3.769489 -17.583294 13.895744 -13.393900 -7.010264 18.130407 -19.665318 -78.273579 44.715506 -70.799016 -6.109992 13.817488 7.357887 
0.755476 0.669207 1.305247 -45.396860 3.408464 92.723674 -2.466646 3.306186 -5.941533 1.097212 10.793422 -5.631818 -10.941261 11.980131 39.668585 0.000000 -0.000000 0.000000 2.930963 -0.398259 -12.298558 -3.521140 5.294720 1.755270 14.129937 -8.508046 39.811989 0.000000 -0.000000 0.000000 1.599284 -1.215725 14.984348 1.811501 -8.362942 -9.687279 3.458368 -1.818459 0.315521 -7.376850 4.904116 -0.938123 5.670630 17.946483 -10.022459 14.418188 -26.306441 -19.437232 9.864525 -39.400449 -24.947375 29.075468 -47.049418 -43.733409 2.854072 -23.759300 -3.329686 -17.103844 10.899436 -13.870438 -1.452232 16.042623 -16.173520 -88.521891 46.435489 -79.270393 -6.617896 14.416062 6.800287 
0.729637 0.667496 1.275686 -39.425051 4.205429 91.862680 -2.983670 3.953332 -6.607241 0.997272 12.368837 -5.292475 -10.926639 11.640089 38.828030 0.000000 -0.000000 0.000000 3.246589 0.543172 -12.700436 -4.108196 6.092779 2.320427 13.314466 -7.826377 37.867116 0.000000 -0.000000 0.000000 1.203296 -2.047602 16.248442 2.316820 -9.697631 -10.752011 3.541146 -2.954504 1.874959 -7.083181 5.005402 -1.522648 6.844842 19.076792 -10.906825 14.053243 -27.186147 -19.271954 5.767850 -42.082549 -23.658731 32.061962 -50.073625 -44.556728 4.024500 -23.449742 -3.465664 -17.464605 7.146984 -13.624467 6.102952 11.644516 -12.055419 -101.030384 45.826466 -88.112811 -6.611195 14.960077 6.026050 
0.700812 0.666951 1.235857 -33.112483 5.125340 91.553678 -2.859300 3.679518 -7.765854 0.861848 12.504542 -4.303586 -9.145794 11.065956 37.237084 0.000000 -0.000000 0.000000 3.737838 0.982656 -12.832769 -4.187704 7.275502 1.786794 14.203976 -5.618343 36.299494 0.000000 -0.000000 0.000000 0.023218 -2.477554 16.892653 3.109951 -11.066399 -11.123643 3.964035 -4.728041 2.561115 -6.447098 5.214523 -2.816015 7.727386 19.552014 -11.135226 12.334771 -27.790494 -17.531410 1.042594 -45.146106 -21.716330 34.710232 -54.791127 -43.490789 5.116648 -22.895046 -3.869357 -16.679985 2.629620 -12.666805 13.500354 7.725573 -8.537947 -111.278193 45.854681 -94.605384 -8.212846 16.294632 4.109882 
0.670738 0.667980 1.186158 -26.950093 6.363452 92.421368 -1.862337 3.099723 -11.055976 0.173989 13.763184 -1.108325 -7.509431 9.887621 33.846515 0.000000 -0.000000 0.000000 4.395007 2.333686 -14.990483 -3.783284 8.879649 3.130097 13.536369 -5.892664 34.429810 0.000000 -0.000000 0.000000 -1.481819 -2.871782 16.584733 4.144432 -12.245593 -11.275855 3.967865 -6.443202 3.063718 -4.332572 5.004387 -5.821129 9.463517 18.793939 -8.942063 9.412517 -27.575596 -14.721361 -5.236726 -49.068427 -17.548163 37.246253 -60.818019 -40.599965 5.923996 -22.535476 -5.188207 -14.134976 -1.689497 -9.847486 20.753066 3.670431 -4.743827 -118.394336 44.553489 -97.919920 -9.298113 17.821032 2.440486 
0.640071 0.668651 1.126942 -21.719986 7.473265 93.208280 -0.266722 -0.172556 -15.020403 0.120261 12.024215 5.741021 -1.905007 9.197580 36.669376 0.000000 -0.000000 0.000000 5.174609 3.791459 -18.077978 -3.154655 8.684942 8.859452 11.551881 -7.353571 32.389105 0.000000 -0.000000 0.000000 -3.568751 -3.165362 16.925052 4.969638 -12.848552 -11.625848 4.127857 -7.648239 3.084292 -2.202525 3.971375 -7.911725 12.013026 18.831331 -6.830221 5.007953 -27.850025 -10.776206 -13.983997 -51.169542 -10.681040 37.086304 -67.876886 -36.172183 9.134056 -21.420078 -7.478504 -11.657400 -4.312582 -6.936167 29.533808 -2.569398 -1.027556 -121.627705 44.883379 -98.090438 -11.559622 19.259389 -0.386170 
0.607913 0.666966 1.058518 -17.080818 9.516681 91.751420 2.399054 -0.803202 -17.800619 -2.368762 9.232796 20.561729 3.075802 7.869302 16.769905 0.000000 -0.000000 0.000000 6.996709 3.969671 -19.037920 -1.281474 7.180265 18.266499 9.700644 -8.268957 28.153252 0.000000 -0.000000 0.000000 -4.754781 -3.190993 20.203874 5.453468 -13.318477 -13.213141 4.331678 -8.931083 4.070806 0.751515 4.166921 -10.407054 13.747059 19.497561 -4.251703 0.618457 -27.917706 -7.964749 -26.088794 -49.478079 -1.824447 28.688579 -74.535492 -23.807213 11.035964 -19.692785 -9.196233 -9.720356 -6.347898 -5.586062 39.979581 -7.908522 1.925196 -120.950179 49.055946 -96.987194 -13.792595 17.990628 -3.450538 
0.575696 0.666743 0.983570 -12.926937 11.263897 88.675863 4.353944 2.135713 -20.328925 -3.177406 5.880444 37.693998 10.274387 11.117971 -15.244986 0.000000 -0.000000 0.000000 9.046221 1.829743 -19.088886 2.262409 6.532438 33.995128 6.289317 -1.754370 -3.938206 0.000000 -0.000000 0.000000 -5.067773 -3.271283 25.588702 5.265400 -13.255924 -15.965591 3.194171 -9.733933 8.120818 3.839479 8.588016 -17.542546 13.288223 14.423635 -1.077467 -3.491187 -25.630628 -8.616823 -37.720876 -44.912530 6.072788 -3.876607 -78.013298 13.562242 8.546461 -17.653653 -12.575215 -5.636760 -8.689642 -6.602863 50.222145 -12.746656 2.467175 -117.854786 57.149318 -93.182376 -15.202873 16.617535 -7.069473 
